<svg width="104" height="72" viewBox="0 0 104 72" fill="none" xmlns="http://www.w3.org/2000/svg">
<path d="M9.12 12.24C10.08 12.24 11.04 13.2 11.04 15.6C11.04 18 10.08 18.96 9.12 18.96C8.16 18.96 7.2 18 7.2 15.6C7.2 13.2 8.16 12.24 9.12 12.24ZM9.12 24.36C13.68 24.36 17.28 20.76 17.28 15.6C17.28 10.44 13.68 6.84 9.12 6.84C4.56 6.84 0.96 10.44 0.96 15.6C0.96 20.76 4.56 24.36 9.12 24.36ZM32.1544 16.8V7.2H24.9544L18.9544 16.8V21.36H25.9144V24H32.1544V21.36H33.5944V16.8H32.1544ZM24.4744 16.8L25.9144 13.68V16.8H24.4744Z" fill="#3D96F9"/>
<circle cx="68.5" cy="36.5" r="35.5" fill="#35659A"/>
<path d="M82.1 15H55.5C53.568 15.0023 52.0023 16.568 52 18.5V37.4C52.0023 39.332 53.568 40.8977 55.5 40.9H65.0718L64.0722 44.4H61.8V45.8H75.8V44.4H73.5278L72.5282 40.9H82.1C84.032 40.8977 85.5977 39.332 85.6 37.4V18.5C85.5977 16.568 84.032 15.0023 82.1 15ZM65.5282 44.4L66.5278 40.9H71.0722L72.0718 44.4H65.5282ZM84.2 37.4C84.2 38.5598 83.2598 39.5 82.1 39.5H55.5C54.3402 39.5 53.4 38.5598 53.4 37.4V36H84.2V37.4ZM84.2 34.6H53.4V18.5C53.4 17.3402 54.3402 16.4 55.5 16.4H82.1C83.2598 16.4 84.2 17.3402 84.2 18.5V34.6Z" fill="white"/>
<path d="M74.3999 47.2H54.7999C54.4133 47.2 54.0999 47.5134 54.0999 47.9V56.3C54.0999 56.6865 54.4133 57 54.7999 57H74.3999C74.7865 57 75.0999 56.6865 75.0999 56.3V47.9C75.0999 47.5134 74.7865 47.2 74.3999 47.2ZM73.6999 55.6H55.4999V48.6H73.6999V55.6Z" fill="white"/>
<path d="M58.3001 52.8H56.9001V54.2H58.3001V52.8Z" fill="white"/>
<path d="M58.3001 50H56.9001V51.4H58.3001V50Z" fill="white"/>
<path d="M61.1 50H59.7V51.4H61.1V50Z" fill="white"/>
<path d="M63.9 50H62.5V51.4H63.9V50Z" fill="white"/>
<path d="M69.4999 50H68.0999V51.4H69.4999V50Z" fill="white"/>
<path d="M66.7 50H65.3V51.4H66.7V50Z" fill="white"/>
<path d="M72.3001 52.8H70.9001V54.2H72.3001V52.8Z" fill="white"/>
<path d="M72.3001 50H70.9001V51.4H72.3001V50Z" fill="white"/>
<path d="M69.5 52.8H59.7V54.2H69.5V52.8Z" fill="white"/>
<path d="M80 47.2C78.067 47.2 76.5 48.767 76.5 50.7V53.5C76.5 55.4329 78.067 57 80 57C81.933 57 83.5 55.4329 83.5 53.5V50.7C83.5 48.767 81.933 47.2 80 47.2ZM82.1 53.5C82.1 54.6598 81.1598 55.6 80 55.6C78.8402 55.6 77.9 54.6598 77.9 53.5V50.7C77.9 49.5401 78.8402 48.6 80 48.6C81.1598 48.6 82.1 49.5401 82.1 50.7V53.5Z" fill="white"/>
<path d="M80.7 50H79.3V51.4H80.7V50Z" fill="white"/>
<path d="M69.5238 21.1224L66.7212 30.9167L68.0666 31.3017L70.8692 21.5073L69.5238 21.1224Z" fill="white"/>
<path d="M65.0479 23.2376L64.1519 22.1624L59.9519 25.6624C59.6551 25.91 59.6151 26.3513 59.8627 26.6483C59.8897 26.6807 59.9196 26.7106 59.9519 26.7376L64.1519 30.2376L65.0479 29.1624L61.4933 26.2L65.0479 23.2376Z" fill="white"/>
<path d="M77.7373 25.7516C77.7102 25.7192 77.6804 25.6893 77.648 25.6624L73.448 22.1624L72.552 23.2376L76.1066 26.2L72.552 29.1624L73.448 30.2376L77.648 26.7376C77.9449 26.4899 77.9849 26.0486 77.7373 25.7516Z" fill="white"/>
</svg>
