<svg width="104" height="72" viewBox="0 0 104 72" fill="none" xmlns="http://www.w3.org/2000/svg">
<path d="M9.12 12.24C10.08 12.24 11.04 13.2 11.04 15.6C11.04 18 10.08 18.96 9.12 18.96C8.16 18.96 7.2 18 7.2 15.6C7.2 13.2 8.16 12.24 9.12 12.24ZM9.12 24.36C13.68 24.36 17.28 20.76 17.28 15.6C17.28 10.44 13.68 6.84 9.12 6.84C4.56 6.84 0.96 10.44 0.96 15.6C0.96 20.76 4.56 24.36 9.12 24.36ZM22.7944 7.2L18.7144 8.88V14.16L22.3144 12.96V24H28.5544V7.2H22.7944Z" fill="#3D96F9"/>
<circle cx="68.5" cy="36.5" r="35.5" fill="#35659A"/>
<path d="M91.1797 32.1239H85.9297C85.4766 32.1239 85.1094 32.4913 85.1094 32.9443V37.0868C85.1094 37.5398 85.4766 37.9071 85.9297 37.9071C86.3827 37.9071 86.75 37.5398 86.75 37.0868V33.7646H90.3594V55.3594H88.5547H86.75V43.2392C86.75 42.7862 86.3827 42.4189 85.9297 42.4189C85.4766 42.4189 85.1094 42.7862 85.1094 43.2392V55.3594H83.4688V38.3789C83.4688 37.9259 83.1015 37.5586 82.6484 37.5586H77.3984C76.9454 37.5586 76.5781 37.9259 76.5781 38.3789V55.3594H74.9375V44.1211C74.9375 43.6681 74.5702 43.3008 74.1172 43.3008H68.8672C68.4141 43.3008 68.0469 43.6681 68.0469 44.1211V55.3594H66.4062V48.8276C66.4062 48.3747 66.039 48.0073 65.5859 48.0073H60.3359C59.8829 48.0073 59.5156 48.3747 59.5156 48.8276V55.3594H52.4609C52.0086 55.3594 51.6406 54.9914 51.6406 54.5391V17.4609C51.6406 17.0086 52.0086 16.6406 52.4609 16.6406H73.6229V22.0549C73.6229 23.4119 74.7269 24.5159 76.0839 24.5159H81.4979V34.6055C81.4979 35.0584 81.8652 35.4258 82.3183 35.4258C82.7713 35.4258 83.1386 35.0584 83.1386 34.6055V23.6956C83.1386 23.478 83.0521 23.2694 82.8983 23.1155L75.0233 15.2403C74.8694 15.0865 74.6608 15 74.4433 15H52.4609C51.104 15 50 16.104 50 17.4609V54.5391C50 55.896 51.104 57 52.4609 57H91.1797C91.6327 57 92 56.6327 92 56.1797V32.9443C92 32.4913 91.6327 32.1239 91.1797 32.1239ZM75.2636 17.8008L80.3379 22.8752H76.0839C75.6315 22.8752 75.2636 22.5073 75.2636 22.0549V17.8008ZM64.7656 55.3594H61.1562V49.6479H64.7656V55.3594ZM73.2969 55.3594H69.6875V44.9414H73.2969V55.3594ZM81.8281 55.3594H78.2188V39.1992H81.8281V55.3594Z" fill="white"/>
<path d="M86.5096 39.4305C86.3571 39.2772 86.1454 39.1902 85.9297 39.1902C85.7139 39.1902 85.5023 39.2772 85.3497 39.4305C85.1971 39.5831 85.1094 39.7948 85.1094 40.0105C85.1094 40.2262 85.1971 40.4379 85.3497 40.5905C85.5023 40.743 85.7139 40.8308 85.9297 40.8308C86.1454 40.8308 86.3571 40.743 86.5096 40.5905C86.6622 40.4379 86.75 40.2262 86.75 40.0105C86.75 39.7948 86.6622 39.5831 86.5096 39.4305Z" fill="white"/>
<path d="M61.9418 19.4895C61.4888 19.4895 61.1215 19.8568 61.1215 20.3098V21.7855C57.3455 22.1954 54.397 25.4028 54.397 29.286C54.397 33.4462 57.7816 36.8308 61.9418 36.8308C65.825 36.8308 69.0324 33.8824 69.4424 30.1063H70.9179C71.371 30.1063 71.7382 29.739 71.7382 29.286C71.7382 23.8842 67.3436 19.4895 61.9418 19.4895ZM61.9418 35.1901C58.6863 35.1901 56.0376 32.5415 56.0376 29.2859C56.0376 26.3088 58.2529 23.8391 61.1215 23.4386V29.2859C61.1215 29.7389 61.4888 30.1062 61.9418 30.1062H67.7892C67.3886 32.9749 64.919 35.1901 61.9418 35.1901ZM62.7621 28.4657V28.4656V21.1711C66.6055 21.5568 69.671 24.6224 70.0567 28.4657H62.7621Z" fill="white"/>
<path d="M70.918 39.1377H55.25C54.7969 39.1377 54.4297 39.505 54.4297 39.958C54.4297 40.411 54.7969 40.7783 55.25 40.7783H70.918C71.371 40.7783 71.7383 40.411 71.7383 39.958C71.7383 39.505 71.371 39.1377 70.918 39.1377Z" fill="white"/>
<path d="M60.5 43.0957H55.25C54.7969 43.0957 54.4297 43.463 54.4297 43.916C54.4297 44.369 54.7969 44.7363 55.25 44.7363H60.5C60.9531 44.7363 61.3203 44.369 61.3203 43.916C61.3203 43.463 60.9531 43.0957 60.5 43.0957Z" fill="white"/>
<path d="M65.1881 43.3361C65.0356 43.1835 64.8239 43.0957 64.6082 43.0957C64.3916 43.0957 64.1808 43.1834 64.0282 43.3361C63.8748 43.4886 63.7879 43.7003 63.7879 43.916C63.7879 44.1318 63.8748 44.3434 64.0282 44.4959C64.1808 44.6485 64.3916 44.7363 64.6082 44.7363C64.8239 44.7363 65.0356 44.6486 65.1881 44.4959C65.3407 44.3434 65.4285 44.1318 65.4285 43.916C65.4285 43.7003 65.3407 43.4886 65.1881 43.3361Z" fill="white"/>
</svg>
