<svg width="104" height="72" viewBox="0 0 104 72" fill="none" xmlns="http://www.w3.org/2000/svg">
<path d="M9.12 12.24C10.08 12.24 11.04 13.2 11.04 15.6C11.04 18 10.08 18.96 9.12 18.96C8.16 18.96 7.2 18 7.2 15.6C7.2 13.2 8.16 12.24 9.12 12.24ZM9.12 24.36C13.68 24.36 17.28 20.76 17.28 15.6C17.28 10.44 13.68 6.84 9.12 6.84C4.56 6.84 0.96 10.44 0.96 15.6C0.96 20.76 4.56 24.36 9.12 24.36ZM26.5144 13.2C25.5544 13.2 24.8344 13.44 24.8344 13.44L25.0744 12.24H31.3144V7.2H20.5144L19.3144 15.12L22.1944 17.04C22.1944 17.04 23.1544 16.56 24.1144 16.56C25.1944 16.56 25.7944 17.16 25.7944 18C25.7944 18.84 25.1944 19.44 24.1144 19.44C22.4344 19.44 20.9944 18.12 20.9944 18.12L18.7144 21.72C18.7144 21.72 20.8744 24.36 25.4344 24.36C29.6344 24.36 32.2744 21.72 32.2744 18.72C32.2744 15.6 29.8744 13.2 26.5144 13.2Z" fill="#3D96F9"/>
<circle cx="68.5" cy="36.5" r="35.5" fill="#35659A"/>
<path d="M51.7692 29.1255H53.5185C53.8579 29.1255 54.1332 28.8502 54.1332 28.5108C54.1332 28.1711 53.8579 27.8958 53.5185 27.8958H51.7692C51.4295 27.8958 51.1542 28.1711 51.1542 28.5108C51.1542 28.8502 51.4295 29.1255 51.7692 29.1255Z" fill="white"/>
<path d="M66.15 27.8958H55.4773C55.1379 27.8958 54.8626 28.1711 54.8626 28.5108C54.8626 28.8502 55.1379 29.1255 55.4773 29.1255H66.15C66.4898 29.1255 66.7651 28.8502 66.7651 28.5108C66.7651 28.1711 66.4898 27.8958 66.15 27.8958Z" fill="white"/>
<path d="M64.5294 31.0122H60.6264C60.2867 31.0122 60.0114 31.2872 60.0114 31.6269C60.0114 31.9666 60.2867 32.2416 60.6264 32.2416H64.5294C64.8688 32.2416 65.1441 31.9666 65.1441 31.6269C65.1441 31.2872 64.8688 31.0122 64.5294 31.0122Z" fill="white"/>
<path d="M58.5847 31.0122H57.3681C57.0287 31.0122 56.7534 31.2872 56.7534 31.6269C56.7534 31.9666 57.0287 32.2416 57.3681 32.2416H58.5847C58.9244 32.2416 59.1997 31.9666 59.1997 31.6269C59.1997 31.2872 58.9244 31.0122 58.5847 31.0122Z" fill="white"/>
<path d="M55.41 31.0122H51.7692C51.4295 31.0122 51.1542 31.2872 51.1542 31.6269C51.1542 31.9666 51.4295 32.2416 51.7692 32.2416H55.41C55.7494 32.2416 56.0247 31.9666 56.0247 31.6269C56.0247 31.2872 55.7494 31.0122 55.41 31.0122Z" fill="white"/>
<path d="M50.73 21.1642C50.73 22.1591 51.5392 22.9683 52.534 22.9683C53.5288 22.9683 54.3384 22.1591 54.3384 21.1642C54.3384 20.1694 53.5288 19.3599 52.534 19.3599C51.5392 19.3599 50.73 20.1694 50.73 21.1642ZM53.1087 21.1642C53.1087 21.4809 52.8507 21.7389 52.534 21.7389C52.2171 21.7389 51.9594 21.4809 51.9594 21.1642C51.9594 20.8473 52.2171 20.5896 52.534 20.5896C52.8507 20.5896 53.1087 20.8473 53.1087 21.1642Z" fill="white"/>
<path d="M55.3231 21.1642C55.3231 22.1591 56.1327 22.9683 57.1275 22.9683C58.1223 22.9683 58.9316 22.1591 58.9316 21.1642C58.9316 20.1694 58.1223 19.3599 57.1275 19.3599C56.1327 19.3599 55.3231 20.1694 55.3231 21.1642ZM57.7018 21.1642C57.7018 21.4809 57.4441 21.7389 57.1272 21.7389C56.8105 21.7389 56.5525 21.4809 56.5525 21.1642C56.5525 20.8473 56.8105 20.5896 57.1272 20.5896C57.4441 20.5896 57.7018 20.8473 57.7018 21.1642Z" fill="white"/>
<path d="M59.9167 21.1642C59.9167 22.1591 60.726 22.9683 61.7208 22.9683C62.7156 22.9683 63.5249 22.1591 63.5249 21.1642C63.5249 20.1694 62.7156 19.3599 61.7208 19.3599C60.726 19.3599 59.9167 20.1694 59.9167 21.1642ZM62.2954 21.1642C62.2954 21.4809 62.0378 21.7389 61.7208 21.7389C61.4042 21.7389 61.1462 21.4809 61.1462 21.1642C61.1462 20.8473 61.4042 20.5896 61.7208 20.5896C62.0378 20.5896 62.2954 20.8473 62.2954 21.1642Z" fill="white"/>
<path d="M82.1685 57.4258H84.2206C84.56 57.4258 84.8353 57.1505 84.8353 56.8111C84.8353 56.4713 84.56 56.196 84.2206 56.196H82.1685C81.8288 56.196 81.5535 56.4713 81.5535 56.8111C81.5535 57.1505 81.8288 57.4258 82.1685 57.4258Z" fill="white"/>
<path d="M81.99 36.1865H81.2824C80.943 36.1865 80.6677 36.4615 80.6677 36.8012C80.6677 37.141 80.943 37.4159 81.2824 37.4159H81.99C82.3298 37.4159 82.6051 37.141 82.6051 36.8012C82.6051 36.4615 82.3298 36.1865 81.99 36.1865Z" fill="white"/>
<path d="M85.1073 36.1865H83.7166C83.3772 36.1865 83.1019 36.4615 83.1019 36.8012C83.1019 37.141 83.3772 37.4159 83.7166 37.4159H85.1073C85.4467 37.4159 85.722 37.141 85.722 36.8012C85.722 36.4615 85.4467 36.1865 85.1073 36.1865Z" fill="white"/>
<path d="M89.9609 19.7059C89.9609 18.214 88.7472 17 87.2553 17H82.0101C81.6704 17 81.3954 17.2753 81.3954 17.6147C81.3954 17.9544 81.6704 18.2297 82.0101 18.2297H87.2553C88.0693 18.2297 88.7315 18.8919 88.7315 19.7059V24.1332H49.2297V19.7059C49.2297 18.8919 49.8919 18.2297 50.7059 18.2297H78.1847C78.5244 18.2297 78.7994 17.9544 78.7994 17.6147C78.7994 17.2753 78.5244 17 78.1847 17H50.7059C49.2137 17 48 18.214 48 19.7059V49.4531C48 50.945 49.2137 52.1591 50.7059 52.1591H62.6687V54.3637H60.8124C59.574 54.3637 58.5667 55.3714 58.5667 56.6094V57.9376C58.5667 58.5026 59.0262 58.9625 59.5913 58.9625L88.0847 59C89.1452 59 90.0077 58.1372 90.0077 57.077V55.132L89.9609 19.7059ZM50.7059 50.9293C49.8919 50.9293 49.2297 50.2672 49.2297 49.4531V47.1212H76.3816V50.9293H50.7059ZM75.2922 52.1591H76.3816V54.3637H75.2922V52.1591ZM74.0628 52.1591V54.3637H63.8981V52.1591H74.0628ZM59.7961 57.7328V56.6094C59.7961 56.0495 60.2521 55.5935 60.8124 55.5935H76.3816V57.077C76.3816 57.3072 76.4223 57.528 76.497 57.7328H59.7961ZM88.778 57.077C88.778 57.4594 88.4671 57.7703 88.0847 57.7703H78.3046C77.9222 57.7703 77.6113 57.4594 77.6113 57.077V55.7467H88.778V57.077ZM88.778 54.5169H77.6113V43.7926C77.6113 43.4532 77.336 43.1779 76.9966 43.1779C76.6569 43.1779 76.3816 43.4532 76.3816 43.7926V45.8915H49.2297V25.363H88.7315V34.771C88.5293 34.6986 88.3116 34.6589 88.0847 34.6589H78.3046C77.2444 34.6589 76.3816 35.5216 76.3816 36.5818V40.0492C76.3816 40.389 76.6569 40.6639 76.9966 40.6639C77.336 40.6639 77.6113 40.389 77.6113 40.0492V39.1419H88.778V54.5169ZM88.778 37.9125H77.6113V36.5818C77.6113 36.1998 77.9222 35.8886 78.3046 35.8886H88.0847C88.4671 35.8886 88.7783 36.1998 88.7783 36.5818V37.9125H88.778Z" fill="white"/>
<path d="M78.8518 42.1707H81.1183C81.4577 42.1707 81.733 41.8953 81.733 41.5559C81.733 41.2162 81.4577 40.9409 81.1183 40.9409H78.8518C78.512 40.9409 78.2371 41.2162 78.2371 41.5559C78.2371 41.8953 78.512 42.1707 78.8518 42.1707Z" fill="white"/>
<path d="M82.8794 42.1707H83.8464C84.1858 42.1707 84.4611 41.8953 84.4611 41.5559C84.4611 41.2162 84.1858 40.9409 83.8464 40.9409H82.8794C82.54 40.9409 82.2647 41.2162 82.2647 41.5559C82.2647 41.8953 82.54 42.1707 82.8794 42.1707Z" fill="white"/>
<path d="M85.4626 42.1707H87.5378C87.8775 42.1707 88.1528 41.8953 88.1528 41.5559C88.1528 41.2162 87.8775 40.9409 87.5378 40.9409H85.4626C85.1232 40.9409 84.8479 41.2162 84.8479 41.5559C84.8479 41.8953 85.1232 42.1707 85.4626 42.1707Z" fill="white"/>
<path d="M78.8518 44.9351H79.8604C80.2001 44.9351 80.4754 44.6598 80.4754 44.32C80.4754 43.9806 80.2001 43.7053 79.8604 43.7053H78.8518C78.512 43.7053 78.2371 43.9806 78.2371 44.32C78.2371 44.6598 78.512 44.9351 78.8518 44.9351Z" fill="white"/>
<path d="M85.0581 44.32C85.0581 43.9806 84.7831 43.7053 84.4434 43.7053H81.5567C81.2173 43.7053 80.942 43.9806 80.942 44.32C80.942 44.6598 81.2173 44.9351 81.5567 44.9351H84.4434C84.7831 44.9351 85.0581 44.6598 85.0581 44.32Z" fill="white"/>
<path d="M87.5375 43.7053H86.3975C86.0581 43.7053 85.7828 43.9806 85.7828 44.32C85.7828 44.6598 86.0581 44.9351 86.3975 44.9351H87.5375C87.8772 44.9351 88.1525 44.6598 88.1525 44.32C88.1525 43.9806 87.8772 43.7053 87.5375 43.7053Z" fill="white"/>
<path d="M78.8518 47.4785H80.8693C81.2087 47.4785 81.484 47.2032 81.484 46.8638C81.484 46.5241 81.2087 46.2488 80.8693 46.2488H78.8518C78.512 46.2488 78.2371 46.5241 78.2371 46.8638C78.2371 47.2032 78.512 47.4785 78.8518 47.4785Z" fill="white"/>
<path d="M82.5528 47.4785H85.1071C85.4465 47.4785 85.7218 47.2032 85.7218 46.8638C85.7218 46.5241 85.4465 46.2488 85.1071 46.2488H82.5528C82.2131 46.2488 81.9378 46.5241 81.9378 46.8638C81.9378 47.2032 82.2131 47.4785 82.5528 47.4785Z" fill="white"/>
<path d="M87.5377 46.2488H86.7531C86.4137 46.2488 86.1384 46.5241 86.1384 46.8638C86.1384 47.2032 86.4137 47.4785 86.7531 47.4785H87.5377C87.8774 47.4785 88.1527 47.2032 88.1527 46.8638C88.1527 46.5241 87.8774 46.2488 87.5377 46.2488Z" fill="white"/>
<path d="M78.8518 50.2432H81.9378C82.2775 50.2432 82.5528 49.9679 82.5528 49.6281C82.5528 49.2887 82.2775 49.0134 81.9378 49.0134H78.8518C78.512 49.0134 78.2371 49.2887 78.2371 49.6281C78.2371 49.9679 78.512 50.2432 78.8518 50.2432Z" fill="white"/>
<path d="M84.5185 49.0134H83.6823C83.3429 49.0134 83.0676 49.2887 83.0676 49.6281C83.0676 49.9679 83.3429 50.2432 83.6823 50.2432H84.5185C84.8579 50.2432 85.1332 49.9679 85.1332 49.6281C85.1332 49.2887 84.8579 49.0134 84.5185 49.0134Z" fill="white"/>
<path d="M87.5377 49.0134H86.0807C85.7413 49.0134 85.466 49.2887 85.466 49.6281C85.466 49.9679 85.7413 50.2432 86.0807 50.2432H87.5377C87.8774 50.2432 88.1527 49.9679 88.1527 49.6281C88.1527 49.2887 87.8774 49.0134 87.5377 49.0134Z" fill="white"/>
</svg>
